HIERARCHY
ROOT Hips
{
  OFFSET 5.84602e-005 68.8428 3.50346
  CHANNELS 6 Xposition Yposition Zposition Zrotation Xrotation Yrotation
  JOINT Spine
  {
    OFFSET 0 8.597 -4.6522
    CHANNELS 3 Zrotation Xrotation Yrotation
    JOINT Spine1
    {
      OFFSET 0 7.8454 0.4098
      CHANNELS 3 Zrotation Xrotation Yrotation
      JOINT Spine2
      {
        OFFSET 0 9.7078 -2.1609
        CHANNELS 3 Zrotation Xrotation Yrotation
        JOINT Neck
        {
          OFFSET 0 21.8761 -0.4549
          CHANNELS 3 Zrotation Xrotation Yrotation
          JOINT Head
          {
            OFFSET 0 12.3537 3.3602
            CHANNELS 3 Zrotation Xrotation Yrotation
            End Site
            {
              OFFSET 0.0001 18.9506 0.5657
            }
          }
        }
        JOINT LeftShoulder
        {
          OFFSET 2.2086 21.1115 7.2329
          CHANNELS 3 Zrotation Xrotation Yrotation
          JOINT LeftArm
          {
            OFFSET 13.1193 3.0282 -4.8998
            CHANNELS 3 Zrotation Xrotation Yrotation
            JOINT LeftForeArm
            {
              OFFSET 27.4081 -0.0973053 -0.2375
              CHANNELS 3 Zrotation Xrotation Yrotation
              JOINT LeftHand
              {
                OFFSET 22.8641 0.0662994 -0.1369
                CHANNELS 3 Zrotation Xrotation Yrotation
                JOINT LeftHandIndex1
                {
                  OFFSET 8.8614 0.775009 2.4612
                  CHANNELS 3 Zrotation Xrotation Yrotation
                  JOINT LeftHandIndex2
                  {
                    OFFSET 3.3146 -0.808304 0.5841
                    CHANNELS 3 Zrotation Xrotation Yrotation
                    JOINT LeftHandIndex3
                    {
                      OFFSET 2.2628 -0.552002 0.3989
                      CHANNELS 3 Zrotation Xrotation Yrotation
                      End Site
                      {
                        OFFSET 1.6102 -0.4807 0.2612
                      }
                    }
                  }
                }
                JOINT LeftHandMiddle1
                {
                  OFFSET 8.9937 0.895004 0.2143
                  CHANNELS 3 Zrotation Xrotation Yrotation
                  JOINT LeftHandMiddle2
                  {
                    OFFSET 4.0984 0.0113983 -0.0242
                    CHANNELS 3 Zrotation Xrotation Yrotation
                    JOINT LeftHandMiddle3
                    {
                      OFFSET 2.2716 0.00689697 -0.0138001
                      CHANNELS 3 Zrotation Xrotation Yrotation
                      End Site
                      {
                        OFFSET 2.0404 -0.1441 0.0027
                      }
                    }
                  }
                }
                JOINT LeftHandRing1
                {
                  OFFSET 8.5234 0.597198 -2.0164
                  CHANNELS 3 Zrotation Xrotation Yrotation
                  JOINT LeftHandRing2
                  {
                    OFFSET 3.7188 -0.188293 -0.2328
                    CHANNELS 3 Zrotation Xrotation Yrotation
                    JOINT LeftHandRing3
                    {
                      OFFSET 2.1191 -0.106598 -0.1332
                      CHANNELS 3 Zrotation Xrotation Yrotation
                      End Site
                      {
                        OFFSET 1.8737 -0.2304 -0.0886
                      }
                    }
                  }
                }
                JOINT LeftHandPinky1
                {
                  OFFSET 7.9094 -0.601089 -3.4825
                  CHANNELS 3 Zrotation Xrotation Yrotation
                  JOINT LeftHandPinky2
                  {
                    OFFSET 2.2874 -0.477005 -0.6314
                    CHANNELS 3 Zrotation Xrotation Yrotation
                    JOINT LeftHandPinky3
                    {
                      OFFSET 1.6774 -0.349396 -0.4633
                      CHANNELS 3 Zrotation Xrotation Yrotation
                      End Site
                      {
                        OFFSET 1.4888 -0.4091 -0.3416
                      }
                    }
                  }
                }
                JOINT LeftHandThumb1
                {
                  OFFSET 1.833 -1.3875 1.3896
                  CHANNELS 3 Zrotation Xrotation Yrotation
                  JOINT LeftHandThumb2
                  {
                    OFFSET 3.4129 -1.121 2.5732
                    CHANNELS 3 Zrotation Xrotation Yrotation
                    JOINT LeftHandThumb3
                    {
                      OFFSET 2.2474 -0.804199 1.6192
                      CHANNELS 3 Zrotation Xrotation Yrotation
                      End Site
                      {
                        OFFSET 1.6527 -0.5689 1.1317
                      }
                    }
                  }
                }
              }
            }
          }
        }
        JOINT RightShoulder
        {
          OFFSET -2.2086 21.1115 7.2329
          CHANNELS 3 Zrotation Xrotation Yrotation
          JOINT RightArm
          {
            OFFSET -13.1216 3.0287 -4.9007
            CHANNELS 3 Zrotation Xrotation Yrotation
            JOINT RightForeArm
            {
              OFFSET -27.4081 -0.0973053 -0.2375
              CHANNELS 3 Zrotation Xrotation Yrotation
              JOINT RightHand
              {
                OFFSET -22.8641 0.0664063 -0.1369
                CHANNELS 3 Zrotation Xrotation Yrotation
                JOINT RightHandIndex1
                {
                  OFFSET -8.8614 0.774994 2.4612
                  CHANNELS 3 Zrotation Xrotation Yrotation
                  JOINT RightHandIndex2
                  {
                    OFFSET -3.3146 -0.808304 0.5841
                    CHANNELS 3 Zrotation Xrotation Yrotation
                    JOINT RightHandIndex3
                    {
                      OFFSET -2.2628 -0.552002 0.3989
                      CHANNELS 3 Zrotation Xrotation Yrotation
                      End Site
                      {
                        OFFSET -1.6102 -0.4807 0.2612
                      }
                    }
                  }
                }
                JOINT RightHandMiddle1
                {
                  OFFSET -8.9937 0.894989 0.2143
                  CHANNELS 3 Zrotation Xrotation Yrotation
                  JOINT RightHandMiddle2
                  {
                    OFFSET -4.0984 0.0113983 -0.0242
                    CHANNELS 3 Zrotation Xrotation Yrotation
                    JOINT RightHandMiddle3
                    {
                      OFFSET -2.2716 0.00691223 -0.0138001
                      CHANNELS 3 Zrotation Xrotation Yrotation
                      End Site
                      {
                        OFFSET -2.0404 -0.1441 0.0027
                      }
                    }
                  }
                }
                JOINT RightHandRing1
                {
                  OFFSET -8.5234 0.597198 -2.0164
                  CHANNELS 3 Zrotation Xrotation Yrotation
                  JOINT RightHandRing2
                  {
                    OFFSET -3.7188 -0.188309 -0.2328
                    CHANNELS 3 Zrotation Xrotation Yrotation
                    JOINT RightHandRing3
                    {
                      OFFSET -2.1191 -0.106598 -0.1332
                      CHANNELS 3 Zrotation Xrotation Yrotation
                      End Site
                      {
                        OFFSET -1.8737 -0.2304 -0.0886
                      }
                    }
                  }
                }
                JOINT RightHandPinky1
                {
                  OFFSET -7.9094 -0.601105 -3.4825
                  CHANNELS 3 Zrotation Xrotation Yrotation
                  JOINT RightHandPinky2
                  {
                    OFFSET -2.2874 -0.477005 -0.6314
                    CHANNELS 3 Zrotation Xrotation Yrotation
                    JOINT RightHandPinky3
                    {
                      OFFSET -1.6774 -0.349396 -0.4633
                      CHANNELS 3 Zrotation Xrotation Yrotation
                      End Site
                      {
                        OFFSET -1.4888 -0.4091 -0.3416
                      }
                    }
                  }
                }
                JOINT RightHandThumb1
                {
                  OFFSET -1.833 -1.38751 1.3896
                  CHANNELS 3 Zrotation Xrotation Yrotation
                  JOINT RightHandThumb2
                  {
                    OFFSET -3.41299 -1.12099 2.5732
                    CHANNELS 3 Zrotation Xrotation Yrotation
                    JOINT RightHandThumb3
                    {
                      OFFSET -2.24741 -0.804108 1.6192
                      CHANNELS 3 Zrotation Xrotation Yrotation
                      End Site
                      {
                        OFFSET -1.6527 -0.5689 1.1317
                      }
                    }
                  }
                }
              }
            }
          }
        }
      }
    }
  }
  JOINT RightUpLeg
  {
    OFFSET -9.1966 3.8861 -0.7581
    CHANNELS 3 Zrotation Xrotation Yrotation
    JOINT RightLeg
    {
      OFFSET -0.7359 -41.0265 0
      CHANNELS 3 Zrotation Xrotation Yrotation
      JOINT RightFoot
      {
        OFFSET 0 -40.2855 0
        CHANNELS 3 Zrotation Xrotation Yrotation
        JOINT RightToeBase
        {
          OFFSET 0 -5.6122 11.7359
          CHANNELS 3 Zrotation Xrotation Yrotation
          End Site
          {
            OFFSET 0 0 7.8731
          }
        }
      }
    }
  }
  JOINT LeftUpLeg
  {
    OFFSET 9.1965 3.8864 -0.7581
    CHANNELS 3 Zrotation Xrotation Yrotation
    JOINT LeftLeg
    {
      OFFSET 0.7359 -41.0268 0
      CHANNELS 3 Zrotation Xrotation Yrotation
      JOINT LeftFoot
      {
        OFFSET 0 -40.2855 0
        CHANNELS 3 Zrotation Xrotation Yrotation
        JOINT LeftToeBase
        {
          OFFSET 0 -5.6122 11.7359
          CHANNELS 3 Zrotation Xrotation Yrotation
          End Site
          {
            OFFSET 0 0 7.8731
          }
        }
      }
    }
  }
}
MOTION
Frames:	4
Frame Time:	0.0333333
5.84602e-005 68.8428 3.50346 0 0 -0 0 0 -0 0 0 -0 0 0 -0 0 0 -0 0 0 -0 0 0 -0 0 0 -0 0 0 -0 0 0 -0 0 0 -0 0 0 -0 0 0 -0 0 0 -0 -0.0146107 -8.87603e-005 -2.63497e-007 2.99804e-018 -2.42657e-020 -1.42182e-022 0 0 -0 -0.0187562 -0.001176 5.858e-005 5.06224e-018 3.88251e-019 1.21329e-020 0 0 -0 -0.012269 -0.00324817 0.000675346 -1.74678e-018 3.88251e-019 -0 0 0 -0 0 0 -0 0 0 -0 0 0 -0 0 0 -0 0 0 -0 0 0 -0 0 0 -0 0 0 -0 0 0 -0 0 0 -0 0.0149955 -9.10982e-005 2.64101e-007 -9.69331e-018 1.21329e-020 -4.7394e-023 0 0 -0 0.0189956 -0.00119102 -5.96516e-005 -5.41541e-019 0 2.42657e-020 0 0 -0 0.0122698 -0.00324857 -0.000673756 -2.00796e-019 0 -1.94126e-019 0 0 -0 0 0 -0 0 0 -0 3.39842 1.33031 -0.0637918 -5.65207e-008 0.834868 -0.000436188 -3.39935 -2.16518 -0.0642563 -8.89002e-024 -1.18485e-023 -1.48106e-024 -3.39844 1.35642 0.0640283 -3.18788e-007 0.782166 -0.000588827 3.39931 -2.13858 0.0634662 1.1399e-023 0 -0 
0.00225311 34.7905 4.55249 -0 -13.644 -0 1.05556 5.31288 2.80636 1.85944 10.6705 5.54982 1.85944 10.6705 5.54983 -0.0208871 -0.279621 0.251547 -0.849014 -5.4713 9.8748 -9.53748e-007 -1.1358e-006 -1.88e-005 2.28218 -10.3884 -26.1745 1.46208e-007 -3.36137e-007 -7.34664 -1.96107e-005 -0.00447735 2.73627e-005 -1.98785e-016 -1.98785e-015 -0 -8.39106e-007 -1.45353e-007 -3.66353e-008 1.19271e-015 7.95139e-016 3.18055e-015 -1.98785e-016 -1.98785e-015 -0 -0.0145151 -8.8396e-005 -2.47932e-006 -5.96354e-016 3.97569e-016 6.36111e-015 -1.98785e-016 -1.98785e-015 -0 -0.0187599 -0.00117592 5.94509e-005 -5.96354e-016 3.97569e-016 -3.18055e-015 -1.98785e-016 -1.98785e-015 -0 -0.0121137 -0.00320718 0.00066913 -6.43386e-008 -2.04443e-007 1.04279e-006 -1.98785e-016 -1.98785e-015 -0 -8.39106e-007 -1.45353e-007 -3.66353e-008 1.19271e-015 7.95139e-016 3.18055e-015 -1.54712e-006 -3.32911e-006 -5.1121e-006 -3.85223 -12.3202 20.4295 1.10578 -3.50059 62.3353 -4.3875e-007 -4.19099e-007 -9.63893e-006 -7.95139e-016 4.62174e-015 1.59028e-015 -1.76556e-031 3.18055e-015 3.18055e-015 -2.3173e-031 4.17448e-015 3.18055e-015 -7.95139e-016 4.62174e-015 1.59028e-015 0.0149359 -9.08765e-005 9.74247e-006 4.29034e-007 3.39068e-008 5.78375e-006 -7.95139e-016 4.62174e-015 1.59028e-015 0.0190019 -0.00119155 -5.71591e-005 3.97569e-016 2.87741e-014 1.59028e-015 -7.95139e-016 4.62174e-015 1.59028e-015 0.0122545 -0.00324386 -0.000670183 4.28861e-007 3.33846e-008 5.78366e-006 -7.95139e-016 4.62174e-015 1.59028e-015 -1.76556e-031 3.18055e-015 3.18055e-015 -2.3173e-031 4.17448e-015 3.18055e-015 -2.88288 -57.7406 -11.5708 0.0199486 71.413 -2.43685 -3.35163 -3.59539 -0.105225 -4.25557e-007 -2.61447e-008 1.24349e-008 -6.31257 -56.8005 -2.91855 -0.0218755 71.6525 2.44377 3.34688 -3.82749 0.111863 1.18485e-023 7.95139e-016 -3.79152e-022 
0.047152 6.35852 5.37029 -0 -25.0231 -0 0.967608 9.48272 5.48899 1.01736 19.0141 11.046 1.01736 19.0141 11.0459 -0.0484951 -0.557236 0.501337 -0.121177 -9.67003 18.2733 1.83462e-007 1.66356e-007 -5.03732e-006 -2.38118 -14.2174 -49.1487 -2.3341e-007 9.85302e-007 -13.4737 -8.1576e-006 -0.00835836 2.09244e-005 -2.03427e-007 -6.27427e-008 -1.47946e-008 -0 0 1.90833e-014 -2.03427e-007 -6.27427e-008 -1.47945e-008 -2.03427e-007 -6.27427e-008 -1.47946e-008 -0.0146635 -8.92714e-005 2.70849e-006 -2.03427e-007 -6.27408e-008 -1.48024e-008 -2.03427e-007 -6.27427e-008 -1.47946e-008 -0.0188018 -0.00117974 6.12187e-005 -2.03427e-007 -6.27401e-008 -1.48028e-008 -2.03427e-007 -6.27427e-008 -1.47946e-008 -0.0122408 -0.0032404 0.000672822 -2.03428e-007 -6.27398e-008 -1.47955e-008 -2.03427e-007 -6.27427e-008 -1.47946e-008 -0 0 1.90833e-014 -2.03427e-007 -6.27427e-008 -1.47945e-008 -2.81045e-007 1.69104e-010 1.63418e-006 -0.50261 -19.1142 39.0895 2.46369 5.54293 113.336 -3.72721e-017 -1.59028e-015 -0 -1.04078e-008 8.5102e-007 -9.66487e-011 -4.07754e-009 2.53178e-007 7.06367e-009 -1.45816e-008 1.4489e-006 1.9336e-008 -1.04078e-008 8.5102e-007 -9.66487e-011 0.0150387 -9.09944e-005 2.80208e-007 5.2906e-010 1.44884e-006 1.80676e-008 -1.04078e-008 8.5102e-007 -9.66487e-011 0.018996 -0.00119189 -5.94585e-005 -1.03968e-008 8.51019e-007 -2.37652e-010 -1.04078e-008 8.5102e-007 -9.66487e-011 0.0123212 -0.00326261 -0.000679041 1.93129e-010 1.44846e-006 1.802e-008 -1.04078e-008 8.5102e-007 -9.66487e-011 -4.07754e-009 2.53178e-007 7.06367e-009 -1.45816e-008 1.4489e-006 1.9336e-008 -141.186 -71.2593 -151.252 179.974 51.9189 175.79 -3.3644 -4.20274 -2.94398 3.97569e-015 0 -0 -164.976 -75.5476 -158.479 -179.97 51.5421 -175.759 3.37458 -4.55454 2.97715 9.73879e-014 -1.59028e-015 -1.05986e-013 
0.0652051 -0.764148 5.57536 -0 -27.8736 -0 0.793328 10.4772 6.2059 0.417629 20.9778 12.5868 0.417628 20.9778 12.5868 -0.108165 -0.827906 0.744535 0.246343 -10.5948 20.3132 4.5931e-006 1.04917e-005 7.34175e-005 -4.10272 -14.0877 -54.9143 4.14649e-007 -6.59077e-007 -15.0086 0.000108224 -0.0100029 -0.000128117 7.95139e-016 0 3.18055e-015 4.02503e-007 1.37232e-007 2.85544e-008 -1.59028e-015 -1.59028e-015 3.18055e-015 7.95139e-016 0 3.18055e-015 -0.0145825 -8.97186e-005 -7.59977e-006 -1.47065e-007 -9.42028e-010 2.05775e-006 7.95139e-016 0 3.18055e-015 -0.0187403 -0.00117338 6.19891e-005 1.59028e-015 0 -0 7.95139e-016 0 3.18055e-015 -0.0122793 -0.0032511 0.000677641 0 0 -9.54166e-015 7.95139e-016 0 3.18055e-015 4.02503e-007 1.37232e-007 2.85544e-008 -1.59028e-015 -1.59028e-015 3.18055e-015 3.11708e-006 1.17784e-005 -5.21707e-006 1.09137 -19.9791 43.9734 1.04967 9.14227 125.938 2.53404e-007 -1.20112e-007 -1.71212e-006 2.08879e-007 -3.84248e-008 -2.05442e-008 -3.73232e-007 -4.83819e-009 -1.65049e-006 1.59028e-015 0 9.54166e-015 2.08879e-007 -3.84248e-008 -2.05442e-008 0.0150498 -9.18122e-005 -7.85018e-008 7.95139e-016 -3.18055e-015 -0 2.08879e-007 -3.84248e-008 -2.05442e-008 0.0189918 -0.00119148 -6.18592e-005 0 0 -3.18055e-015 2.08879e-007 -3.84248e-008 -2.05442e-008 0.0122869 -0.00325253 -0.00067331 -7.95139e-016 -2.22639e-014 -0 2.08879e-007 -3.84248e-008 -2.05442e-008 -3.73232e-007 -4.83819e-009 -1.65049e-006 1.59028e-015 0 9.54166e-015 -152.365 -60.6311 -163.67 179.962 37.806 173.986 -3.27202 -4.71662 -4.15964 1.78906e-015 -4.77083e-015 1.59028e-015 -170.857 -64.3091 -161.792 -179.954 37.4122 -173.919 3.28881 -5.08392 4.21862 2.0333e-013 -1.59028e-015 -9.57673e-015 
